PathFileType	4	(X/Y/Z)	Patient4_TMGait_0pt5_02_right_29.trc.trc
DataRate	CameraRate	NumFrames	NumMarkers	Units	OrigDataRate	OrigDataStartFrame	OrigNumFrames
78.212290502793	78.212290502793	5	33	mm	78.212290502793	18	       141
Frame#	Time	Sacral			L.Shoulder			Chest			R.Shoulder			Neck			R.ASIS			L.ASIS			R.Thigh.Superior			R.Thigh.Lateral			R.Thigh.Inferior			R.Patella			L.Thigh.Superior			L.Thigh.Lateral			L.Thigh.Inferior			L.Patella			L.Shank.Superior			L.Shank.Lateral			L.Shank.Inferior			R.Shank.Superior			R.Shank.Lateral			R.Shank.Inferior			R.Heel			R.Midfoot.Superior			R.Midfoot.Lateral			R.Toe			L.Heel			L.Midfoot.Lateral			L.Midfoot.Superior			L.Toe			L.Elbow			L.Wrist			R.Elbow			R.Wrist			
		X1	Y1	Z1	X2	Y2	Z2	X3	Y3	Z3	X4	Y4	Z4	X5	Y5	Z5	X6	Y6	Z6	X7	Y7	Z7	X8	Y8	Z8	X9	Y9	Z9	X10	Y10	Z10	X11	Y11	Z11	X12	Y12	Z12	X13	Y13	Z13	X14	Y14	Z14	X15	Y15	Z15	X16	Y16	Z16	X17	Y17	Z17	X18	Y18	Z18	X19	Y19	Z19	X20	Y20	Z20	X21	Y21	Z21	X22	Y22	Z22	X23	Y23	Z23	X24	Y24	Z24	X25	Y25	Z25	X26	Y26	Z26	X27	Y27	Z27	X28	Y28	Z28	X29	Y29	Z29	X30	Y30	Z30	X31	Y31	Z31	X32	Y32	Z32	X33	Y33	Z33	

18	38.067357142857	668.337356820102	1013.882517877113	443.932327686873	890.610758037873	1434.374341683748	282.653104849909	969.913992258999	1355.403933289702	452.449275627157	872.750402957929	1433.422740328533	618.120169915569	878.357713802519	1492.634577268205	433.537459483277	881.073910534202	942.488858555352	582.774432734133	895.937603806247	957.945157102966	306.895784579249	951.870585659033	765.783863344167	560.004811292904	899.744007764761	649.060673294499	630.651652176080	988.554073932895	607.752130566052	551.964946413845	1020.185333432453	528.421448448105	568.033323814014	906.237262597319	734.752541094756	344.246759713730	806.209779434677	633.762733199053	273.102099333456	864.397590031770	544.983425091902	346.593880525215	851.118260416712	477.124603997393	356.448938666377	821.286520750397	409.098257934441	345.216653768411	727.661926296155	302.267991103736	287.801896798023	759.325195076702	188.742631913512	364.282695378704	1008.732842293440	441.507093803046	578.448371181905	962.919249881994	325.443993951575	642.482042630159	1036.662993908164	243.124800224267	590.931317401801	953.742229823996	51.341078169977	560.976770449925	1112.532040338245	133.309487699174	605.761957576594	1036.975864620669	52.450914148294	636.247799676641	1237.925884848399	101.317867211600	632.825250782918	618.189050200051	38.434282552255	397.544068091382	695.149169081112	35.504582489636	319.837520894661	777.759061679600	95.550778582212	350.902960437253	906.957454801242	41.339759111330	326.542993679690	857.440082255190	1091.744562067298	143.661590214282	1086.667381471361	980.082950519674	176.466052209140	741.684911826769	1112.533575348738	727.235965356125	728.637886949415	852.470650472990	743.249415768248	
19	38.080142857143	669.600278648504	1012.491480955340	445.774058992567	890.242047723692	1433.664659599532	284.982218923573	969.828332607609	1354.995244327106	454.799199682377	872.184614974370	1432.527137452523	620.472908344646	877.612458938085	1491.788446326623	435.877637137149	882.172048320957	941.149525682409	584.836653357296	897.287981324838	957.076408581029	309.041246678124	951.344451059060	762.816224944147	562.986969921015	897.182419247403	646.227010035858	632.447916717339	986.331651846910	604.798489714740	554.269026768639	1016.600499565774	525.749338059351	569.482551534968	905.828337662922	733.152274395337	346.045174589798	804.752838412913	633.161239266576	274.361707136786	861.679335408063	543.763154271530	347.809147110824	847.723261502970	475.982259838565	357.495723097554	817.407613969914	408.195961236039	346.119177682542	723.015139327165	302.164650635787	288.386569470175	753.643619443653	188.245675300659	364.668624864801	1005.781047045024	438.765459538322	579.755907110357	960.016535740571	322.421877150102	643.039922645164	1034.504477037701	240.624090546474	591.618491152928	952.692126218905	48.973280465867	560.566565461243	1110.985806518502	130.750092288341	606.093740040320	1035.561785126506	49.997874312118	636.168441471494	1236.328746624370	98.953228547368	633.446276190432	611.722916889249	38.299633922439	397.559736854574	688.695025604425	35.412380182770	319.899393581570	771.288751150732	95.481488087092	351.008517762646	900.490093836856	41.320890652663	326.551531606411	858.618806059201	1090.552945944846	146.847301197365	1088.348330644587	980.741653677908	181.949680106828	741.948903038579	1110.854339476909	728.148178488090	731.065446822341	850.561656315531	743.228674077614	
20	38.092928571429	671.042142877970	1010.953169639801	447.864735693696	889.709566154000	1432.879438140111	287.472564452987	969.735716201057	1354.610763102777	457.282404179361	871.602977260628	1431.562679609917	623.005149316409	876.712734959247	1490.870925662448	438.389315013773	883.617133335382	939.706688823100	587.001260660610	898.796298447171	956.170998162089	311.326306837175	951.681466906875	760.155610459232	565.728624867877	895.565955078894	643.452494931343	633.808633902614	985.158533705291	602.113793650537	556.231291519120	1013.857158325420	522.836416515249	570.492418759104	905.649662952638	731.462456950332	347.811533548473	803.390957595379	632.496135189483	275.754504020434	859.150513918433	542.479612494514	349.078310716750	844.551156676766	474.705883198275	358.625902761138	813.660212462071	407.188637779258	347.106072044609	718.410673365761	302.044200870007	289.035459548849	747.969205346488	187.690606917601	365.073956428725	1002.985291933348	435.561233339857	580.608702995919	956.257386387776	319.443117981986	643.235445135475	1030.474966756882	237.504487894469	591.838278397065	947.789858918065	47.114928337053	560.078425498296	1106.353392082709	127.112371185273	605.828692247824	1030.380947683323	47.471092013343	635.895171839135	1231.353552165318	94.353155698867	633.368218956710	605.228642485388	38.064184676960	397.559937844556	682.230112180909	35.246510274311	319.958827067931	764.799930306714	95.386730849130	351.102901947635	894.038754778793	41.317066221715	326.543788671552	859.485014661875	1089.276629900749	150.207395363887	1089.649309216963	981.086802769534	187.318433242658	742.720343030932	1108.887014238457	729.311795999148	734.733310567866	848.336877711240	743.310341796356	
21	38.105714285714	672.624926863546	1009.299453686286	450.185254453256	889.052241071197	1432.029752909555	290.131635138482	969.652349006553	1354.242676739144	459.908188861846	871.027366598157	1430.530842638951	625.722875546718	875.702718731555	1489.895666940663	441.082632111905	885.382146617944	938.188134202350	589.250645543450	900.416495412908	955.246151617933	313.737552647582	952.868497638393	757.799804303993	568.172898092228	894.892616396372	640.796660642905	634.754479919781	984.975431326011	599.696694276010	557.817390071345	1011.942595453302	519.753843366435	571.043568315808	905.713235021418	729.722863699484	349.524532188033	802.173034020590	631.756484576779	277.292493030762	856.921271791429	541.133413637820	350.409828363326	841.748311487802	473.267698695662	359.843156251992	810.147317237103	406.056531607626	348.191870920328	713.916211089385	301.920092414502	289.764071457576	742.340961653703	187.079314557669	365.500676615232	1000.461953552567	432.016640087901	581.027490809132	951.993096665614	316.530666010237	643.153226277806	1025.054338867060	233.884744514449	591.629357882381	939.803442353267	45.650909754342	559.611301019241	1099.295163290020	122.652755568387	605.017529336819	1022.238306209639	44.942792319597	635.508592352451	1223.768717974382	88.018752917461	632.614420093925	598.705699802011	37.760728234795	397.535011202297	675.758663086716	35.017788186651	320.011388786414	758.311401462163	95.264190268697	351.180622582506	887.615181289498	41.313700476362	326.515146011933	860.021450057457	1087.931304529747	153.724952074143	1090.558745998786	981.106116305491	192.518309816850	743.976490745323	1106.665739820007	730.755464963877	739.585313909237	845.853932418162	743.540034976023	
22	38.118500000000	674.300386855927	1007.578799145532	452.712344580045	888.310903340462	1431.144230196443	292.963970794283	969.595356877626	1353.891443979966	462.680083942548	870.489580389072	1429.445710588561	628.630203251455	874.638184258506	1488.891269617383	443.965639805447	887.422057979466	936.638729506986	591.562763751646	902.089796614755	954.333322824668	316.256659325874	954.824107053272	755.733389097537	570.276633198166	895.120367788741	638.335872825760	635.344790539537	985.656890885833	597.548506320388	559.005532918951	1010.803305918757	516.604298571407	571.156722147320	906.039987293426	727.990792031216	351.175335784676	801.180517172645	630.933996857339	278.993408439806	855.142151972717	539.733444925217	351.822440421799	839.504973405134	471.645333009352	361.153594798213	807.009623732516	404.787230634992	349.393614530212	709.632605501596	301.822377089808	290.592010635909	736.821352927081	186.430123266211	365.951927944261	998.309496228593	428.305590359909	581.067713340184	947.600918983037	313.746350705448	642.891239009189	1018.796171890195	229.968353985523	591.060322386613	929.685720684239	44.506238952862	559.229573275858	1090.587426546618	117.748663595414	603.764259962202	1012.093413115464	42.542098586232	635.082188044517	1214.448532389713	80.634849071793	631.298010136798	592.161486477299	37.466717362635	397.475719226929	669.289949990223	34.763645344082	320.053011367659	751.857013971597	95.119424480882	351.235844959414	881.230805552825	41.289840670737	326.462274176909	860.220109187737	1086.546168575721	157.387335731567	1091.062166237524	980.777701914290	197.501670474795	745.710412490932	1104.233611571794	732.498274309716	745.556118167246	843.183392051088	743.956653523955	
